<svg width="300" height="70" viewBox="0 0 300 70" fill="none" xmlns="http://www.w3.org/2000/svg">
<path fill-rule="evenodd" clip-rule="evenodd" d="M71 15.0355H80.322C88.1199 15.071 89.8922 15.1774 91.3808 15.6741C92.6923 16.1353 93.2949 16.5965 93.8265 17.519C94.3582 18.4414 94.5709 19.6477 94.6772 22.1312C94.7836 23.9761 94.7481 26.4242 94.6063 27.5595C94.4646 29.0851 94.1456 29.8301 93.4012 30.6462C92.8695 31.2138 91.8771 31.8524 91.2036 32.0653C90.4947 32.2782 86.0287 32.4201 71 32.4201V15.0355ZM76.6712 28.1626C86.8084 28.0207 88.1199 27.8788 88.5452 27.4531C88.8288 27.1692 89.1833 26.1049 89.2896 25.1469C89.4314 24.1535 89.4314 22.7699 89.2896 22.0248C89.1833 21.3152 88.8288 20.4637 88.5452 20.1799C88.1199 19.7542 86.9148 19.6477 82.3424 19.6477H76.6712V28.1626ZM98.2926 15.0355H103.255V20.5347C103.255 23.5504 103.29 26.1403 103.361 26.3177C103.397 26.4597 103.609 26.8144 103.787 27.1338C103.999 27.4531 104.495 27.8788 104.956 28.1272C105.382 28.34 107.331 28.5174 109.281 28.5174C111.265 28.5174 113.179 28.34 113.64 28.1272C114.066 27.8788 114.526 27.524 114.668 27.3111C114.81 27.0983 114.952 24.26 114.952 15.0355H120.127L120.091 22.0958C120.091 28.6593 120.056 29.2625 119.347 30.1849C118.957 30.7171 117.929 31.5331 117.043 31.9943C115.59 32.7039 115.023 32.7749 109.387 32.7749C103.787 32.7749 103.078 32.7039 101.447 31.9943C100.065 31.3557 99.4977 30.859 98.9661 29.7592C98.3989 28.5174 98.2926 27.4885 98.2926 21.7055V15.0355ZM124.167 15.0355L132.497 15L142.776 27.9498L142.918 15.0355H148.27V32.4201H139.763L129.661 19.5768L129.484 32.4201H124.167V15.0355ZM163.157 15.0355C169.679 15.0355 170.6 15.1064 171.947 15.7451C172.762 16.1353 173.578 16.8094 173.755 17.2352C173.897 17.6609 174.145 18.7962 174.499 21.4217H171.841C169.714 21.4217 169.183 21.3152 169.183 20.8895C169.183 20.5702 168.934 20.1089 168.651 19.8251C168.225 19.3994 167.127 19.2575 163.44 19.2575C159.222 19.2575 158.655 19.3284 157.946 19.967C157.202 20.6057 157.131 21.0314 157.131 23.9052C157.131 26.9564 157.167 27.0983 158.124 27.8078C158.974 28.4465 159.612 28.5174 163.263 28.5174C165.532 28.5174 167.765 28.3755 168.225 28.1981C168.651 28.0207 169.147 27.4885 169.289 26.9564C169.537 26.0694 169.643 26.0339 174.499 26.0339V27.9852C174.499 29.5108 174.322 30.114 173.684 30.8945C173.223 31.4267 172.231 32.0653 171.451 32.3137C170.565 32.5975 167.729 32.7394 163.689 32.7394C159.045 32.7749 156.812 32.633 155.465 32.2427C154.083 31.817 153.374 31.3912 152.807 30.5397C152.063 29.4754 151.992 29.0141 151.992 23.6568C151.992 18.4414 152.063 17.8383 152.736 16.9159C153.126 16.3837 153.977 15.7451 154.686 15.4967C155.501 15.1774 158.23 15.0355 163.157 15.0355ZM185.983 15L193.108 15.2129L196.227 20.8895C197.928 24.0116 200.055 27.8788 202.501 32.4201L196.652 32.2427L195.235 29.5818L183.892 29.5463L182.474 32.4201H176.626L178.221 29.4754C179.107 27.8788 181.198 23.9407 182.9 20.783L185.983 15ZM186.551 25.4662C186.551 25.5727 187.897 25.6436 189.563 25.6436C191.229 25.6436 192.576 25.5727 192.576 25.4662C192.576 25.3953 191.938 24.0116 191.158 22.4505C190.379 20.8895 189.67 19.6122 189.563 19.6122C189.457 19.6122 188.748 20.8895 187.968 22.4505C187.189 24.0116 186.515 25.3598 186.551 25.4662ZM204.982 15H213.134L218.132 21.3152C220.861 24.7567 223.271 27.6305 223.449 27.7014C223.626 27.7369 223.768 25.1469 223.768 15H228.73V32.3846H220.4L215.438 26.1758C212.709 22.7699 210.37 19.967 210.192 19.967C210.051 19.967 209.944 22.7699 209.944 32.3846H204.982V15ZM138.523 36.7485C144.796 36.8195 145.753 36.9259 147.029 37.529C147.809 37.9193 148.731 38.8063 149.156 39.4804C149.759 40.5802 149.865 41.3608 149.865 45.6892C149.865 49.7692 149.759 50.8691 149.227 51.827C148.873 52.5011 147.986 53.2816 147.1 53.7074C145.718 54.417 145.08 54.4524 137.814 54.417C130.937 54.3815 129.839 54.275 128.598 53.7074C127.676 53.2462 126.968 52.5721 126.542 51.756C126.046 50.7272 125.94 49.5564 125.94 45.6892C125.94 42.4961 126.081 40.5447 126.4 39.7642C126.684 39.1256 127.18 38.3805 127.535 38.0612C127.889 37.7774 128.917 37.3516 129.803 37.1033C130.902 36.8195 133.844 36.713 138.523 36.7485ZM131.611 45.7956C131.575 47.8889 131.717 49.0242 132.036 49.308C132.355 49.5918 134.234 49.7692 137.814 49.7692C142.244 49.8047 143.201 49.7338 143.662 49.237C144.052 48.8468 144.194 47.8534 144.194 45.6537C144.194 42.8509 144.123 42.567 143.308 41.9284C142.528 41.3253 141.854 41.2543 137.707 41.2543C133.525 41.2543 132.958 41.3253 132.32 41.9639C131.717 42.567 131.611 43.1702 131.611 45.7956ZM153.587 36.6421H161.03C165.284 36.6421 169.253 36.8195 170.317 37.0678C171.522 37.3162 172.514 37.8129 173.081 38.416C173.578 38.9482 174.003 39.5868 174.074 39.8706C174.109 40.1545 174.251 41.4317 174.357 42.6735C174.464 44.1281 174.357 45.5827 174.074 46.5407C173.79 47.4986 173.188 48.421 172.55 48.9177C171.522 49.6983 171.167 49.7692 158.726 49.9466L158.549 54.3815H153.587V36.6421ZM158.903 45.5118C166.595 45.5118 168.119 45.4053 168.403 45.086C168.651 44.8377 168.828 44.0217 168.828 43.3121C168.828 42.3187 168.651 41.8929 168.119 41.6091C167.729 41.4317 165.496 41.2543 163.157 41.2543H158.903V45.5118ZM218.451 36.7485C224.229 36.8195 225.54 36.9259 226.497 37.4581C227.135 37.7774 227.808 38.3451 227.986 38.6998C228.127 39.0192 228.376 39.9771 228.73 42.3187H226.072C223.697 42.3187 223.378 42.2477 223.236 41.6091C223.13 41.2188 222.669 40.7576 222.173 40.5447C221.676 40.3673 219.656 40.19 217.636 40.19C215.013 40.19 213.808 40.3319 213.205 40.7221C212.78 41.0414 212.425 41.5381 212.425 41.8929C212.425 42.2122 212.603 42.7089 212.851 42.9573C213.17 43.2411 214.41 43.4185 216.502 43.4185C218.238 43.4185 221.251 43.5604 223.13 43.7733C225.044 43.9507 226.922 44.27 227.312 44.4474C227.702 44.6603 228.305 45.2634 228.624 45.7956C229.025 46.4342 229.226 47.5341 229.226 49.0951C229.262 50.5498 229.049 51.7915 228.73 52.3947C228.446 52.9268 227.596 53.5655 226.851 53.8848C225.859 54.275 223.768 54.3815 217.813 54.417C210.405 54.417 210.086 54.3815 208.881 53.6009C208.207 53.1752 207.569 52.3947 207.428 51.898C207.286 51.4367 207.144 50.5143 207.109 48.7049H209.767C212.071 48.7049 212.425 48.8113 212.425 49.3435C212.425 49.6628 212.603 50.1595 212.851 50.4078C213.17 50.7272 214.729 50.8691 218.167 50.8336C222.846 50.8336 223.094 50.7981 223.555 50.0531C223.839 49.5918 223.945 48.9532 223.839 48.6339C223.697 48.2791 223.342 47.8889 223.059 47.7824C222.775 47.676 219.621 47.4631 216.076 47.3567C210.263 47.1438 209.554 47.0374 208.633 46.3633C208.101 45.9375 207.499 45.086 207.321 44.4119C207.179 43.7733 207.109 42.2477 207.25 41.0769C207.357 39.7287 207.676 38.7353 208.066 38.3451C208.42 37.9903 209.342 37.4581 210.121 37.1743C211.22 36.784 213.028 36.6776 218.451 36.7485ZM103.078 36.9969H123.459V40.8995H116.015V54.3815L110.876 54.2041L110.698 40.8995H103.078V36.9969ZM177.689 36.9969H183.006V50.124H195.057V54.3815H177.689V36.9969ZM197.893 36.9969H203.21V54.3815H197.893V36.9969Z" fill="#0F244A"/>
<path fill-rule="evenodd" clip-rule="evenodd" d="M76.9547 36.6776H83.0158C87.6945 36.6776 89.325 36.784 90.1402 37.2098C90.7073 37.4936 91.3454 38.0613 91.558 38.4516C91.7352 38.8418 91.9125 39.7997 91.9125 40.5803C91.9125 41.9285 91.8416 41.9994 90.8491 41.9994C89.8567 41.9994 89.7858 41.893 89.7858 40.7577C89.7858 39.8707 89.5731 39.374 88.9705 38.9837C88.368 38.558 87.092 38.4516 83.2993 38.4516C78.9042 38.4516 78.3725 38.5225 77.7345 39.1611C77.3446 39.5514 77.0256 40.261 77.0256 40.7577C77.0256 41.2544 77.2383 41.8575 77.4864 42.1059C77.7345 42.3187 80.9245 44.0927 84.5754 46.0085C88.2262 47.8889 91.3454 49.45 91.558 49.45C91.7352 49.45 91.9125 48.6695 91.9125 47.676C91.9125 45.9376 91.9479 45.9021 94.0392 45.9021L93.8619 50.8337L95.5279 51.7561C96.4849 52.2528 97.2292 52.714 97.2292 52.8205C97.2292 52.9269 97.052 53.3172 96.8748 53.7074C96.5203 54.417 96.4849 54.417 94.7481 53.5301C93.2594 52.785 92.9404 52.714 92.7986 53.1753C92.6923 53.4591 91.7707 53.9558 90.7428 54.2396C89.325 54.6654 87.411 54.7718 82.5196 54.7363C76.8838 54.6299 75.9622 54.5589 74.7217 53.9203C73.7292 53.3881 73.1975 52.8205 72.8785 51.9335C72.6304 51.2594 72.4532 49.9112 72.4532 48.9178C72.4177 47.8889 72.7013 46.6117 73.0558 45.9021C73.5165 44.9087 73.9773 44.5894 76.6357 43.9508L75.7496 43.1702C75.0407 42.4961 74.8989 42.0349 74.9343 40.5448C74.9343 39.0902 75.147 38.558 75.9622 37.7065L76.9547 36.6776ZM75.3242 46.6117C75.0761 47.0019 74.8634 48.1018 74.8634 49.0242C74.8634 50.1596 75.0761 50.9756 75.5369 51.5787C76.2458 52.4657 76.2812 52.4657 82.555 52.5721C86.6666 52.6431 89.2541 52.5721 89.963 52.2883C90.9909 51.898 90.8846 51.8271 84.6463 48.563C81.1372 46.7181 78.0181 45.228 77.7345 45.228C77.4155 45.228 76.8484 45.3699 76.4585 45.5473C76.0686 45.7247 75.5369 46.1859 75.3242 46.6117Z" fill="#8F9194"/>
</svg>
