<svg width="300" height="70" viewBox="0 0 300 70" fill="none" xmlns="http://www.w3.org/2000/svg">
<path d="M0.00586042 34.7529C-0.0250652 25.1711 0.0677117 18.3092 0.253266 18.1856C0.407894 18.062 4.2736 21.7402 17.2314 34.6911L8.88152 43.0056C4.2736 47.6111 0.438819 51.2892 0.315117 51.1965C0.160489 51.1347 0.0367861 43.7165 0.00586042 34.7529Z" fill="#00AEEF"/>
<path d="M17.3551 34.8456L25.4886 26.6238C29.9728 22.1111 33.8076 18.3711 34.0241 18.3402C34.3024 18.3092 34.3952 21.7711 34.3952 34.6911C34.3952 43.6856 34.3024 51.1347 34.1787 51.1965C34.0241 51.2892 30.2202 47.642 17.3551 34.8456Z" fill="#00AEEF"/>
<path d="M17.3548 34.8455L8.94302 26.4073L0.53125 18H34.2093L17.3548 34.8455Z" fill="white"/>
<path d="M289.84 42.7273V34.6909V26.6545H290.613C291.387 26.6545 291.387 26.6545 291.387 29.4982C291.387 31.0745 291.449 32.4655 291.541 32.5891C291.634 32.7436 292.222 32.4964 292.84 32.0636C293.706 31.4764 294.417 31.26 295.562 31.26C296.644 31.26 297.355 31.4764 297.943 31.9091C298.438 32.2491 299.025 32.9291 299.273 33.4545C299.613 34.1345 299.737 35.4636 299.737 42.7273H298.19L298.128 38.5545L298.128 38.5247C298.036 34.4741 298.034 34.3798 297.17 33.5473C296.52 32.8982 296.025 32.6818 295.129 32.6818C294.386 32.6818 293.582 32.9291 293.026 33.3309C292.562 33.6709 292.005 34.4436 291.789 35.0309C291.572 35.6182 291.418 37.5654 291.387 42.7273H289.84Z" fill="#231F20"/>
<path d="M0.592873 51.7836C0.469171 51.6291 4.14932 47.7345 8.78817 43.0982L17.2309 34.6909L25.6426 43.0982C30.2815 47.7345 33.9926 51.6291 33.8998 51.7527C33.8379 51.9073 26.3539 52 17.2927 52C8.26243 52 0.716576 51.9073 0.592873 51.7836Z" fill="#231F20"/>
<path fill-rule="evenodd" clip-rule="evenodd" d="M46.1465 26.6545H48.9298L51.342 30.3636C52.6409 32.4036 53.7851 34.0727 53.8779 34.0727C53.9707 34.0727 55.1149 32.4036 58.826 26.6545H61.6093V42.7273H58.826L58.6714 31.5073L53.816 38.8636L49.0844 31.7545L48.7752 42.5727L46.1465 42.7273V26.6545ZM72.5879 26.6545C74.3816 26.6236 75.062 26.7782 76.4536 27.52C77.4432 28.0145 78.5875 28.9418 79.1751 29.6836C79.7008 30.3945 80.2884 31.5073 80.4739 32.1254C80.6286 32.7745 80.7832 33.9182 80.7832 34.6909C80.7832 35.4636 80.5667 36.7 80.3193 37.4727C80.0719 38.2454 79.4534 39.3582 78.9895 39.9454C78.4947 40.5327 77.3505 41.3982 76.4227 41.8927C75.062 42.5727 74.3507 42.7273 72.5879 42.7273C70.9798 42.7273 70.0211 42.5418 68.8768 42.0164C68.0418 41.6145 66.9285 40.8109 66.4337 40.2236C65.9389 39.6364 65.3513 38.7709 65.073 38.2454C64.8256 37.72 64.5472 36.4836 64.4545 35.4636C64.3617 34.2273 64.4854 33.1145 64.8256 32.0636C65.073 31.1982 65.7224 30.0236 66.1863 29.4364C66.6811 28.8491 67.8254 27.9836 68.7531 27.4891C70.0829 26.8091 70.8561 26.6545 72.5879 26.6545ZM69.5263 30.24C69.0315 30.5491 68.382 31.3527 68.0728 31.9709C67.7017 32.6818 67.4852 33.7945 67.4852 34.7527C67.5161 35.8654 67.7326 36.7618 68.1965 37.5654C68.5676 38.2145 69.3716 39.0491 69.9592 39.42C70.6705 39.8527 71.5364 40.0691 72.5879 40.0691C73.6394 40.0691 74.5053 39.8527 75.3094 39.3891C75.9588 38.9873 76.701 38.1836 77.0721 37.4727C77.4742 36.7 77.6906 35.6491 77.6906 34.5982C77.6597 33.5782 77.4432 32.5891 77.0412 31.9091C76.701 31.3218 75.9897 30.5182 75.4331 30.1473C74.8764 29.7764 73.8868 29.4054 73.2064 29.3127C72.5261 29.22 71.6292 29.2509 71.1963 29.4054C70.7633 29.5291 70.0211 29.9 69.5263 30.24ZM91.1433 26.6545C92.906 26.6545 93.6173 26.8091 94.9781 27.4891C95.9058 27.9836 97.0501 28.8491 97.5449 29.4364C98.0088 30.0236 98.6273 31.1364 98.8747 31.9091C99.1221 32.6818 99.3386 33.98 99.3077 34.8454C99.3077 35.68 99.1221 36.8236 98.9365 37.38C98.7201 37.9054 98.1325 38.9564 97.6377 39.6982C97.0192 40.5636 96.1223 41.3364 95.009 41.8927C93.6173 42.5727 92.906 42.7273 91.1433 42.7273C89.6589 42.7273 88.5455 42.5109 87.5868 42.0782C86.8137 41.7382 85.7932 41.0891 85.2983 40.6254C84.8035 40.1618 84.0922 39.08 83.6902 38.2454C83.1335 37.1018 82.948 36.1745 82.948 34.6909C82.948 33.4236 83.1645 32.2182 83.5356 31.4454C83.8448 30.7654 84.4324 29.7764 84.8654 29.2818C85.2674 28.7564 86.3807 27.9836 87.3085 27.4891C88.6692 26.8091 89.3805 26.6545 91.1433 26.6545ZM87.4941 30.6109C87.1848 30.8891 86.7518 31.6 86.5044 32.1254C86.257 32.6818 86.0406 33.8254 86.0406 34.6909C86.0406 35.6182 86.288 36.7309 86.6591 37.4727C87.0302 38.1836 87.7724 38.9873 88.4218 39.3891C89.2259 39.8527 90.0918 40.0691 91.1433 40.0691C92.1638 40.0691 93.0607 39.8527 93.772 39.4509C94.3905 39.08 95.1636 38.2145 95.5347 37.4418C95.9368 36.6691 96.246 35.5254 96.246 34.7527C96.246 34.0418 96.0914 33.0836 95.9058 32.5891C95.7512 32.1254 95.1327 31.2909 94.607 30.7345C94.0503 30.1782 93.1225 29.5909 92.5349 29.4364C91.9474 29.2509 91.2361 29.1273 90.9887 29.1273C90.7413 29.1582 89.9681 29.3436 89.2878 29.6218C88.6074 29.8691 87.8033 30.3018 87.4941 30.6109ZM106.421 26.7164C109.915 26.8091 110.874 26.9636 112.08 27.52C113.286 28.0764 113.688 28.4782 114.245 29.6527C114.74 30.7654 114.863 31.4764 114.709 32.5273C114.616 33.3 114.276 34.2582 113.935 34.6909C113.626 35.1236 112.853 35.7418 111.09 36.7L113.07 39.4818C114.152 40.9964 114.987 42.3564 114.925 42.48C114.863 42.6345 114.183 42.7273 112.018 42.7273L108.152 37.1327L104.596 37.1636V42.7273L101.967 42.5727L101.905 35C101.905 30.8582 101.936 27.2418 102.029 26.9945C102.153 26.6545 102.988 26.5927 106.421 26.7164ZM104.905 34.3818C109.544 34.4127 110.163 34.2891 110.843 33.7636C111.523 33.3 111.709 32.8982 111.709 31.9709C111.74 31.1982 111.523 30.6418 111.059 30.2091C110.534 29.7145 109.884 29.56 107.689 29.4982L104.967 29.3745L104.905 34.3818ZM117.616 26.6545L129.182 26.8091L129.336 29.1273H120.368V33.4545H128.099V35.9273H120.368V40.2545H129.336V42.7273H117.585L117.616 26.6545ZM155.84 26.9636C156.458 26.9636 156.582 27.1491 156.582 27.8909C156.582 28.7254 156.458 28.8182 155.654 28.8182C154.881 28.8182 154.695 28.6945 154.665 28.1073C154.634 27.7054 154.726 27.3036 154.881 27.18C155.005 27.0564 155.438 26.9636 155.84 26.9636ZM276.759 26.9636C277.377 26.9636 277.501 27.1491 277.501 27.8909C277.501 28.7254 277.377 28.8182 276.573 28.8182C275.8 28.8182 275.615 28.6945 275.584 28.1073C275.553 27.7054 275.646 27.3036 275.8 27.18C275.924 27.0564 276.357 26.9636 276.759 26.9636ZM139.604 27.2418L141.274 27.4273L141.583 36.36L145.913 31.8164C149.469 28.0764 150.366 27.2727 151.077 27.2727C151.541 27.2727 151.943 27.3654 151.943 27.4273C151.943 27.52 150.551 29.0964 145.789 34.2273L148.912 38.0909C150.644 40.2236 152.19 42.14 152.376 42.3564C152.623 42.6964 152.469 42.7582 151.634 42.7582C150.613 42.7582 150.366 42.5418 144.676 35.34L141.397 38.5545L141.428 42.7273H139.573L139.604 27.2418ZM245.926 27.3036C246.854 27.3036 248.122 27.4582 248.709 27.6436C249.297 27.7982 250.132 28.2 250.534 28.4782C251.183 28.9418 251.214 29.0654 250.41 30.3018L249.019 29.56C248.122 29.0964 247.101 28.8182 246.081 28.8182C244.998 28.7873 244.318 28.9727 243.761 29.3745C243.328 29.7145 242.864 30.3636 242.679 30.7964C242.432 31.4454 242.493 31.7854 242.988 32.4345C243.328 32.8982 244.163 33.4545 244.844 33.6709C245.524 33.8873 246.885 34.2582 247.874 34.5364C248.833 34.8145 250.07 35.4018 250.596 35.8654C251.307 36.5145 251.585 37.0709 251.709 38.1218C251.802 39.1418 251.678 39.7909 251.245 40.5945C250.905 41.1818 250.132 41.9236 249.452 42.2636C248.648 42.6964 247.658 42.8818 246.39 42.8509C245.184 42.8509 244.009 42.6036 242.988 42.1709C242.153 41.7691 241.194 41.2436 240.916 40.9654C240.421 40.5018 240.421 40.3782 240.823 39.8836C241.256 39.3891 241.349 39.3891 242.462 40.1C243.081 40.5018 244.225 41.0273 244.998 41.2127C245.771 41.3982 246.823 41.4909 247.318 41.3982C247.843 41.3054 248.648 40.9345 249.111 40.5945C249.761 40.1 249.946 39.6982 249.946 38.8018C249.977 38.0909 249.761 37.4418 249.421 37.1327C249.111 36.8545 247.751 36.2982 246.39 35.9273C245.029 35.5564 243.545 35.0618 243.081 34.8454C242.617 34.5982 241.937 34.0109 241.597 33.5473C241.194 33.0218 240.978 32.2491 240.978 31.4764C240.978 30.7345 241.256 29.8382 241.627 29.2818C241.999 28.7564 242.71 28.1073 243.267 27.8291C243.823 27.52 244.936 27.3036 245.926 27.3036ZM200.311 27.9218C201.053 27.9218 201.084 28.0145 201.084 31.3218H202.939C204.702 31.3218 204.795 31.3527 204.795 32.0945C204.795 32.8364 204.702 32.8673 201.084 32.8673L201.177 36.7618C201.239 40.2236 201.3 40.6873 201.857 41.0891C202.29 41.3982 202.847 41.4909 203.651 41.3673C204.64 41.2436 204.795 41.2745 204.795 41.8309C204.795 42.1709 204.671 42.5109 204.486 42.6036C204.331 42.6964 203.651 42.7582 203.032 42.7891C202.383 42.82 201.548 42.7582 201.177 42.6345C200.775 42.5418 200.249 42.0164 200.002 41.5218C199.661 40.8418 199.538 39.5436 199.538 32.8673H198.765C198.146 32.8673 197.991 32.7127 197.991 32.0945C197.991 31.4764 198.146 31.3218 198.765 31.3218C199.507 31.3218 199.538 31.2291 199.538 29.6218C199.538 28.0145 199.6 27.9218 200.311 27.9218ZM282.573 27.9218C283.315 27.9218 283.346 28.0145 283.346 31.3218H285.202C286.964 31.3218 287.057 31.3527 287.057 32.0945C287.057 32.8364 286.964 32.8673 283.346 32.8673L283.439 36.7618C283.501 40.2236 283.563 40.6873 284.119 41.0891C284.552 41.3982 285.109 41.4909 285.913 41.3673C286.903 41.2436 287.057 41.2745 287.057 41.8309C287.057 42.1709 286.934 42.5109 286.748 42.6036C286.593 42.6964 285.913 42.7582 285.294 42.7891C284.645 42.82 283.81 42.7582 283.439 42.6345C283.037 42.5418 282.511 42.0164 282.264 41.5218C281.924 40.8418 281.8 39.5436 281.8 32.8673H281.027C280.408 32.8673 280.254 32.7127 280.254 32.0945C280.254 31.4764 280.408 31.3218 281.027 31.3218C281.769 31.3218 281.8 31.2291 281.8 29.6218C281.8 28.0145 281.862 27.9218 282.573 27.9218ZM155.005 31.3218H156.551V42.7582H155.005V31.3218ZM160.262 31.3218H161.035C161.561 31.3218 161.808 31.4764 161.808 31.8473C161.808 32.1564 161.87 32.4964 161.963 32.62C162.056 32.7436 162.643 32.4964 163.293 32.0636C164.128 31.5073 164.839 31.2909 165.983 31.2909C167.066 31.2909 167.808 31.4764 168.396 31.9091C168.859 32.28 169.447 32.96 169.694 33.4854C170.035 34.1654 170.158 35.4945 170.158 42.7582H168.612L168.55 38.5854C168.457 34.4745 168.457 34.4127 167.591 33.5473C166.973 32.9291 166.447 32.7127 165.55 32.7127C164.808 32.7127 164.004 32.96 163.447 33.3618C162.984 33.7018 162.427 34.4745 162.21 35.0618C162.025 35.6182 161.839 37.5964 161.808 42.7582H160.262V31.3218ZM178.292 31.3527C179.096 31.3218 180.147 31.5073 180.611 31.7545C181.075 31.9709 181.632 32.4036 181.848 32.6818C182.065 32.9291 182.374 33.1145 182.529 33.0218C182.714 32.9291 182.838 32.5273 182.838 32.0945C182.838 31.4764 182.992 31.3218 184.322 31.3218L184.291 37.1636C184.229 42.48 184.168 43.0982 183.611 43.84C183.271 44.3036 182.59 44.9836 182.127 45.3545C181.477 45.8182 180.673 46.0345 179.189 46.0964C178.044 46.1582 176.56 46.0345 175.88 45.8491C175.199 45.6636 174.395 45.2927 174.117 45.0454C173.684 44.7054 173.622 44.4582 173.869 43.9945C174.179 43.3764 174.179 43.3764 175.354 44.0564C176.22 44.5818 176.993 44.7673 178.415 44.7673C179.869 44.7673 180.518 44.6127 181.199 44.1182C181.663 43.7473 182.281 42.9127 182.498 42.2636C182.745 41.5836 182.838 40.78 182.745 40.44C182.559 39.8527 182.498 39.8527 182.003 40.3164C181.694 40.5945 181.013 41.0582 180.457 41.3364C179.9 41.5836 178.91 41.8309 178.292 41.8309C177.642 41.8309 176.498 41.5218 175.756 41.12C174.797 40.6254 174.179 40.0382 173.653 39.0491C173.251 38.2764 172.942 37.1636 172.942 36.5764C172.942 35.9891 173.22 34.9382 173.498 34.2582C173.808 33.5782 174.488 32.7436 174.983 32.3727C175.478 32.0327 176.096 31.6618 176.343 31.5691C176.591 31.4454 177.488 31.3527 178.292 31.3527ZM175.137 35.0309C174.859 35.7109 174.797 36.5145 174.921 37.1945C175.014 37.7818 175.416 38.5854 175.818 38.9564C176.189 39.3582 176.838 39.8218 177.271 40.0073C177.735 40.1927 178.57 40.2545 179.281 40.1309C180.116 39.9764 180.859 39.5436 181.539 38.8636C182.312 38.0291 182.529 37.5345 182.529 36.5764C182.529 35.8964 182.281 34.9691 182.003 34.5054C181.694 34.0727 181.075 33.5164 180.611 33.2691C180.147 33.0527 179.219 32.8673 178.601 32.8673C177.952 32.8673 177.024 33.1145 176.498 33.4236C176.003 33.7327 175.385 34.4436 175.137 35.0309ZM191.59 31.3218C192.394 31.3218 193.6 31.5382 194.28 31.7854C194.961 32.0327 195.517 32.3418 195.517 32.4654C195.517 32.5891 195.425 32.8982 195.301 33.1145C195.084 33.4545 194.806 33.4236 193.6 33.0527C192.796 32.7745 191.775 32.5582 191.342 32.5582C190.909 32.5582 190.291 32.8364 189.951 33.1764C189.611 33.5164 189.332 34.0109 189.332 34.2582C189.332 34.5054 189.518 34.9073 189.734 35.1236C189.951 35.34 191.002 35.8036 192.115 36.1745C193.229 36.5454 194.528 37.1945 194.992 37.6273C195.641 38.2454 195.827 38.7091 195.827 39.6673C195.827 40.5636 195.61 41.0891 195.053 41.6764C194.62 42.1091 193.755 42.5727 193.136 42.7582C192.487 42.9127 191.466 42.9745 190.878 42.8509C190.291 42.7582 189.208 42.4182 188.497 42.0782C187.322 41.5836 187.198 41.4291 187.477 40.9036C187.662 40.5636 187.817 40.2854 187.879 40.2545C187.91 40.2545 188.559 40.5327 189.332 40.8727C190.105 41.2127 191.219 41.4909 191.806 41.5218C192.394 41.5218 193.198 41.3054 193.6 41.0582C194.002 40.78 194.28 40.2854 194.28 39.8218C194.28 39.3582 194.002 38.8327 193.6 38.5545C193.198 38.3073 192.115 37.8745 191.188 37.5964C190.198 37.3182 189.147 36.7309 188.652 36.2054C188.188 35.7418 187.786 35 187.786 34.5673C187.786 34.1345 187.941 33.4854 188.095 33.0836C188.281 32.7127 188.806 32.1564 189.27 31.8782C189.765 31.5691 190.724 31.3218 191.59 31.3218ZM213.176 31.3836C214.877 31.4454 215.402 31.6 216.392 32.4036C217.072 32.8982 217.846 33.8873 218.155 34.5673C218.464 35.2473 218.712 36.36 218.712 37.04C218.712 37.72 218.464 38.8327 218.155 39.5127C217.846 40.1927 217.134 41.12 216.609 41.5836C216.052 42.0473 215.031 42.6036 214.32 42.7891C213.578 42.9436 212.495 43.0364 211.908 42.9127C211.32 42.82 210.393 42.4491 209.836 42.1091C209.279 41.8 208.475 41.0582 208.042 40.5018C207.609 39.9145 207.207 38.8636 207.084 37.9673C206.929 36.8545 206.991 36.02 207.362 35.0309C207.64 34.2582 208.197 33.3309 208.568 32.96C208.97 32.62 209.712 32.0945 210.207 31.8164C210.856 31.4454 211.753 31.3218 213.176 31.3836ZM209.279 35.0309C209.032 35.5254 208.815 36.4836 208.815 37.1018C208.815 37.7509 209.094 38.7091 209.434 39.2654C209.774 39.8218 210.454 40.5018 210.918 40.8109C211.382 41.0891 212.248 41.3364 212.836 41.3364C213.423 41.3364 214.32 41.0891 214.784 40.8109C215.248 40.5018 215.897 39.8218 216.237 39.2654C216.578 38.7091 216.856 37.8127 216.856 37.2564C216.856 36.7 216.609 35.7418 216.33 35.1236C216.021 34.5054 215.372 33.7327 214.846 33.4236C214.351 33.1145 213.423 32.8673 212.836 32.8673C212.248 32.8673 211.32 33.1454 210.764 33.4854C210.207 33.8254 209.527 34.5054 209.279 35.0309ZM221.495 31.3218H222.268C222.794 31.3218 223.041 31.4764 223.041 31.8473C223.041 32.1564 223.103 32.4964 223.196 32.62C223.289 32.7436 223.876 32.4964 224.526 32.0636C225.361 31.5073 226.072 31.2909 227.216 31.2909C228.298 31.2909 229.041 31.4764 229.628 31.9091C230.092 32.28 230.68 32.96 230.927 33.4854C231.267 34.1654 231.391 35.4945 231.391 42.7582H229.845L229.783 38.5854C229.69 34.4745 229.69 34.4127 228.824 33.5473C228.206 32.9291 227.68 32.7127 226.783 32.7127C226.041 32.7127 225.237 32.96 224.68 33.3618C224.216 33.7018 223.66 34.4745 223.443 35.0618C223.258 35.6182 223.072 37.5964 223.041 42.7582H221.495V31.3218ZM254.895 31.3218H255.668C256.193 31.3218 256.441 31.4764 256.441 31.8473C256.441 32.1564 256.534 32.4964 256.657 32.62C256.812 32.7436 257.307 32.4964 257.771 32.0945C258.389 31.5073 258.946 31.3218 259.997 31.3218C260.77 31.3218 261.822 31.5382 262.317 31.7854C262.842 32.0327 263.368 32.4964 263.523 32.7745C263.801 33.3 263.863 33.2691 264.543 32.6818C264.945 32.3109 265.564 31.8473 265.966 31.6618C266.337 31.4764 267.358 31.3218 268.193 31.3218C269.399 31.3218 269.955 31.4764 270.667 32.0945C271.192 32.5273 271.749 33.3927 271.904 34.0109C272.089 34.66 272.213 36.8854 272.213 42.7582H270.357V38.5854C270.357 34.5982 270.326 34.3509 269.615 33.5473C269.028 32.8982 268.595 32.7127 267.574 32.7127C266.523 32.7127 266.121 32.8673 265.378 33.7018C264.481 34.7218 264.481 34.7218 264.481 42.7582H262.626V38.5854C262.626 34.5364 262.595 34.3818 261.853 33.64C261.42 33.2073 260.77 32.7745 260.399 32.6818C259.997 32.5582 259.286 32.6818 258.791 32.8982C258.296 33.1454 257.616 33.7018 257.245 34.1964C256.688 34.9691 256.595 35.5564 256.441 42.7582H254.895V31.3218ZM275.924 31.3218H277.47V42.7582H275.924V31.3218Z" fill="#231F20"/>
</svg>
